<svg xmlns="http://www.w3.org/2000/svg" version="1.1" xmlns:xlink="http://www.w3.org/1999/xlink" width="32" height="32"><svg width="32" height="32" version="1.1" viewBox="0 0 24 24" xmlns="http://www.w3.org/2000/svg">
 <g fill="#fff" stroke="currentColor" stroke-linecap="round" stroke-linejoin="round" stroke-width="3.9998">
  <g fill="#fff" stroke="none">
   <path d="m12 6c-1.25 0-2.3148 0.50476-2.998 1.2734s-1.002 1.7543-1.002 2.7266c0 0.97222 0.31868 1.9579 1.002 2.7266 0.68327 0.76868 1.748 1.2734 2.998 1.2734s2.3148-0.50476 2.998-1.2734c0.68327-0.76868 1.002-1.7543 1.002-2.7266 0-0.97222-0.31868-1.9579-1.002-2.7266-0.68327-0.76868-1.748-1.2734-2.998-1.2734zm0 2c0.75 0 1.1852 0.24524 1.502 0.60156s0.49805 0.87066 0.49805 1.3984c0 0.52778-0.18132 1.0421-0.49805 1.3984-0.31673 0.35632-0.75195 0.60156-1.502 0.60156s-1.1852-0.24524-1.502-0.60156c-0.31673-0.35632-0.49805-0.87066-0.49805-1.3984 0-0.52778 0.18132-1.0421 0.49805-1.3984s0.75195-0.60156 1.502-0.60156z"></path>
   <path d="m12 4c-1.7884 0-3.4123 0.73047-4.4922 1.9453-1.0421 1.1724-1.5078 2.6454-1.5078 4.0547 0 1.4092 0.4657 2.8823 1.5078 4.0547 1.0799 1.2148 2.7038 1.9453 4.4922 1.9453s3.4123-0.73047 4.4922-1.9453c1.0421-1.1724 1.5078-2.6454 1.5078-4.0547 0-1.4092-0.4657-2.8823-1.5078-4.0547-1.0799-1.2148-2.7038-1.9453-4.4922-1.9453z"></path>
   <path d="m12 2c-3.6833 0-6.242 0.42948-7.9062 2.0938s-2.0938 4.2229-2.0938 7.9062c0 3.6833 0.42948 6.242 2.0938 7.9062s4.2229 2.0938 7.9062 2.0938c3.6833 0 6.242-0.42948 7.9062-2.0938s2.0938-4.2229 2.0938-7.9062c0-3.6833-0.42948-6.242-2.0938-7.9062s-4.2229-2.0938-7.9062-2.0938zm0 2c3.5167 0 5.4565 0.47208 6.4922 1.5078 1.0357 1.0357 1.5078 2.9755 1.5078 6.4922 0 3.5167-0.47208 5.4565-1.5078 6.4922-1.0357 1.0357-2.9755 1.5078-6.4922 1.5078-3.5167 0-5.4565-0.47208-6.4922-1.5078-1.0357-1.0357-1.5078-2.9755-1.5078-6.4922 0-3.5167 0.47208-5.4565 1.5078-6.4922s2.9755-1.5078 6.4922-1.5078z"></path>
   <path d="m12 0c-3.8388 0-7.053 0.41237-9.3203 2.6797-2.2673 2.2673-2.6797 5.4815-2.6797 9.3203 0 3.8388 0.41237 7.053 2.6797 9.3203 2.2673 2.2673 5.4815 2.6797 9.3203 2.6797 3.8388 0 7.053-0.41237 9.3203-2.6797 2.2673-2.2673 2.6797-5.4815 2.6797-9.3203 0-3.8388-0.41237-7.053-2.6797-9.3203-2.2673-2.2673-5.4815-2.6797-9.3203-2.6797z"></path>
   <path d="m10 15c-2.7496 0-5 2.2504-5 5v0.05078a1 1 0 0 0 1 1 1 1 0 0 0 1-1v-0.05078c0-1.6687 1.3313-3 3-3h4c1.6687 0 3 1.3313 3 3v0.05078a1 1 0 0 0 1 1 1 1 0 0 0 1-1v-0.05078c0-2.7496-2.2504-5-5-5z"></path>
   <path d="m10 13c-3.8408 0-7 3.1592-7 7v0.05078c0 1.6331 1.3669 3 3 3s3-1.3669 3-3v-0.05078c0-0.60502 0.39498-1 1-1h4c0.60502 0 1 0.39498 1 1v0.05078c0 1.6331 1.3669 3 3 3s3-1.3669 3-3v-0.05078c0-3.8408-3.1592-7-7-7z"></path>
  </g>
 </g>
 <g transform="matrix(1.05 0 0 1.05 -.6 -.6)" fill="none" stroke="#1447e6" stroke-linecap="round" stroke-linejoin="round" stroke-width="2">
  <path d="m12 13a3 3 0 1 0 0-6 3 3 0 0 0 0 6"></path>
  <path d="m12 3c7.2 0 9 1.8 9 9s-1.8 9-9 9-9-1.8-9-9 1.8-9 9-9"></path>
  <path d="m6 20.05v-0.05a4 4 0 0 1 4-4h4a4 4 0 0 1 4 4v0.05"></path>
 </g>
</svg><style>@media (prefers-color-scheme: light) { :root { filter: none; } }
@media (prefers-color-scheme: dark) { :root { filter: none; } }
</style></svg>